<svg width="40" height="40" viewBox="0 0 40 40" fill="none" xmlns="http://www.w3.org/2000/svg">
<path fill-rule="evenodd" clip-rule="evenodd" d="M-0.000976562 19.9998C-0.000976562 8.95422 8.95324 0 19.9988 0C31.0444 0 39.9986 8.95422 39.9986 19.9998C39.9986 31.0454 31.0444 39.9996 19.9988 39.9996C8.95324 39.9996 -0.000976562 31.0454 -0.000976562 19.9998Z" fill="white"/>
<path fill-rule="evenodd" clip-rule="evenodd" d="M19.9988 0C8.95324 0 -0.000976562 8.95422 -0.000976562 19.9998C-0.000976562 31.0454 8.95324 39.9996 19.9988 39.9996C31.0444 39.9996 39.9986 31.0454 39.9986 19.9998C39.9986 8.95422 31.0444 0 19.9988 0ZM28.3335 13.1256C29.2515 13.3775 29.9744 14.1197 30.2197 15.0622C30.6655 16.7703 30.6655 20.3344 30.6655 20.3344C30.6655 20.3344 30.6655 23.8984 30.2197 25.6067C29.9744 26.5492 29.2515 27.2914 28.3335 27.5434C26.67 28.001 19.9989 28.001 19.9989 28.001C19.9989 28.001 13.3279 28.001 11.6642 27.5434C10.7463 27.2914 10.0234 26.5492 9.77808 25.6067C9.33238 23.8984 9.33238 20.3344 9.33238 20.3344C9.33238 20.3344 9.33238 16.7703 9.77808 15.0622C10.0234 14.1197 10.7463 13.3775 11.6642 13.1256C13.3279 12.6678 19.9989 12.6678 19.9989 12.6678C19.9989 12.6678 26.67 12.6678 28.3335 13.1256Z" fill="#353E7A"/>
<path fill-rule="evenodd" clip-rule="evenodd" d="M17.9985 23.9986V17.332L23.3318 20.6655L17.9985 23.9986Z" fill="#353E7A"/>
</svg>
